<?xml version="1.0" encoding="UTF-8" standalone="no"?>
<svg
   xmlns:dc="http://purl.org/dc/elements/1.1/"
   xmlns:cc="http://creativecommons.org/ns#"
   xmlns:rdf="http://www.w3.org/1999/02/22-rdf-syntax-ns#"
   xmlns:svg="http://www.w3.org/2000/svg"
   xmlns="http://www.w3.org/2000/svg"
   xml:space="preserve"
   width="343.16409mm"
   height="366.35989mm"
   style="clip-rule:evenodd;fill-rule:evenodd;image-rendering:optimizeQuality;shape-rendering:geometricPrecision;text-rendering:geometricPrecision"
   viewBox="0 0 343.1641 366.3599"
   version="1.0"
   id="svg76"><metadata
   id="metadata80"><rdf:RDF><cc:Work
       rdf:about=""><dc:format>image/svg+xml</dc:format><dc:type
         rdf:resource="http://purl.org/dc/dcmitype/StillImage" /><dc:title></dc:title></cc:Work></rdf:RDF></metadata>
 <defs
   id="defs50"><style
     type="text/css"
     id="style48">
   <![CDATA[
    .str0 {stroke:#B3B3B3;stroke-width:3.9687;stroke-linecap:round;stroke-linejoin:round}
    .fil0 {fill:#C0A062}
    .fil1 {fill:#0A0B0C;fill-rule:nonzero}
   ]]>
  </style></defs>
 <g
   id="Layer_x0020_1"
   transform="translate(-222.3761,-129.7723)">
  <metadata
   id="CorelCorpID_0Corel-Layer" />
  
  
  
  
  
  
  
  
  
  
  <path
   class="fil1"
   d="m 502.523,278.366 c -5.7985,21.5106 -12.9999,37.5032 -21.6041,47.978 -11.3165,13.4675 -26.8416,20.2013 -46.5752,20.2013 -12.8129,0 -29.6473,-5.1439 -50.6903,-15.4316 -21.043,-10.3812 -35.1652,-15.525 -42.4601,-15.525 -18.2373,0 -30.8631,10.3812 -37.7839,30.9566 h -16.7409 c 3.6475,-18.6114 11.1295,-33.7623 22.4459,-45.4529 12.4388,-12.9999 27.6833,-19.453 45.7335,-19.453 12.0647,0 28.2443,4.9568 48.5392,14.9639 20.2948,9.9135 34.6975,14.8703 43.3018,14.8703 17.302,0 30.3954,-11.0359 39.1868,-33.1076 z"
   id="path71" />
  <path
   style="color:#000000;font-style:normal;font-variant:normal;font-weight:normal;font-stretch:normal;font-size:medium;line-height:normal;font-family:sans-serif;font-variant-ligatures:normal;font-variant-position:normal;font-variant-caps:normal;font-variant-numeric:normal;font-variant-alternates:normal;font-variant-east-asian:normal;font-feature-settings:normal;font-variation-settings:normal;text-indent:0;text-align:start;text-decoration:none;text-decoration-line:none;text-decoration-style:solid;text-decoration-color:#000000;letter-spacing:normal;word-spacing:normal;text-transform:none;writing-mode:lr-tb;direction:ltr;text-orientation:mixed;dominant-baseline:auto;baseline-shift:baseline;text-anchor:start;white-space:normal;shape-padding:0;shape-margin:0;inline-size:0;clip-rule:nonzero;display:inline;overflow:visible;visibility:visible;opacity:1;isolation:auto;mix-blend-mode:normal;color-interpolation:sRGB;color-interpolation-filters:linearRGB;solid-color:#000000;solid-opacity:1;vector-effect:none;fill:#0a0b0c;fill-opacity:1;fill-rule:nonzero;stroke:none;stroke-width:1;stroke-linecap:butt;stroke-linejoin:miter;stroke-miterlimit:4;stroke-dasharray:none;stroke-dashoffset:0;stroke-opacity:1;color-rendering:auto;image-rendering:auto;shape-rendering:auto;text-rendering:auto;enable-background:accumulate;stop-color:#000000;stop-opacity:1"
   d="m 397.265,129.773 c 48.4188,0 88.9,18.2562 121.444,54.7687 31.2208,35.1014 46.8312,77.2583 46.8312,126.294 0,50.9764 -15.875,94.2798 -47.5368,129.734 -32.9847,37.0417 -74.5243,55.5625 -124.883,55.5625 -51.1528,0 -92.6924,-18.1681 -124.795,-54.5042 -30.6034,-34.8368 -45.9493,-78.1403 -45.9493,-129.999 0,-55.6507 18.9618,-100.983 56.7973,-136.172 32.9847,-30.5153 72.3194,-45.6847 118.092,-45.6847 z m -4.8507,18.7854 c -31.3972,0 -56.5326,11.6416 -75.4944,34.925 -23.5479,28.9278 -35.366,71.2611 -35.366,127.088 0,57.4146 12.259,101.424 36.6889,132.027 18.609,23.4597 43.3917,35.1895 74.4361,35.1895 40.7458,0 70.9083,-17.3743 90.3993,-52.2111 15.5222,-27.5166 23.2833,-63.5 23.2833,-107.774 0,-47.0076 -7.3201,-84.7548 -21.9604,-113.154 -19.1382,-37.3944 -49.8298,-56.0916 -91.9868,-56.0916 z"
   id="path73" />
 <path
   class="fil1"
   d="m 502.523,278.366 c -5.7985,21.5106 -12.9999,37.5032 -21.6041,47.978 -11.3165,13.4675 -26.8416,20.2013 -46.5752,20.2013 -12.8129,0 -29.6473,-5.1439 -50.6903,-15.4316 -21.043,-10.3812 -35.1652,-15.525 -42.4601,-15.525 -18.2373,0 -30.8631,10.3812 -37.7839,30.9566 h -16.7409 c 3.6475,-18.6114 11.1295,-33.7623 22.4459,-45.4529 12.4388,-12.9999 27.6833,-19.453 45.7335,-19.453 12.0647,0 28.2443,4.9568 48.5392,14.9639 20.2948,9.9135 34.6975,14.8703 43.3018,14.8703 17.302,0 30.3954,-11.0359 39.1868,-33.1076 z"
   id="path209" /><path
   style="color:#000000;font-style:normal;font-variant:normal;font-weight:normal;font-stretch:normal;font-size:medium;line-height:normal;font-family:sans-serif;font-variant-ligatures:normal;font-variant-position:normal;font-variant-caps:normal;font-variant-numeric:normal;font-variant-alternates:normal;font-variant-east-asian:normal;font-feature-settings:normal;font-variation-settings:normal;text-indent:0;text-align:start;text-decoration:none;text-decoration-line:none;text-decoration-style:solid;text-decoration-color:#000000;letter-spacing:normal;word-spacing:normal;text-transform:none;writing-mode:lr-tb;direction:ltr;text-orientation:mixed;dominant-baseline:auto;baseline-shift:baseline;text-anchor:start;white-space:normal;shape-padding:0;shape-margin:0;inline-size:0;clip-rule:nonzero;display:inline;overflow:visible;visibility:visible;opacity:1;isolation:auto;mix-blend-mode:normal;color-interpolation:sRGB;color-interpolation-filters:linearRGB;solid-color:#000000;solid-opacity:1;vector-effect:none;fill:#0a0b0c;fill-opacity:1;fill-rule:nonzero;stroke:none;stroke-width:1;stroke-linecap:butt;stroke-linejoin:miter;stroke-miterlimit:4;stroke-dasharray:none;stroke-dashoffset:0;stroke-opacity:1;color-rendering:auto;image-rendering:auto;shape-rendering:auto;text-rendering:auto;enable-background:accumulate;stop-color:#000000;stop-opacity:1"
   d="m 397.265,129.773 c 48.4188,0 88.9,18.2562 121.444,54.7687 31.2208,35.1014 46.8312,77.2583 46.8312,126.294 0,50.9764 -15.875,94.2798 -47.5368,129.734 -32.9847,37.0417 -74.5243,55.5625 -124.883,55.5625 -51.1528,0 -92.6924,-18.1681 -124.795,-54.5042 -30.6034,-34.8368 -45.9493,-78.1403 -45.9493,-129.999 0,-55.6507 18.9618,-100.983 56.7973,-136.172 32.9847,-30.5153 72.3194,-45.6847 118.092,-45.6847 z m -4.8507,18.7854 c -31.3972,0 -56.5326,11.6416 -75.4944,34.925 -23.5479,28.9278 -35.366,71.2611 -35.366,127.088 0,57.4146 12.259,101.424 36.6889,132.027 18.609,23.4597 43.3917,35.1895 74.4361,35.1895 40.7458,0 70.9083,-17.3743 90.3993,-52.2111 15.5222,-27.5166 23.2833,-63.5 23.2833,-107.774 0,-47.0076 -7.3201,-84.7548 -21.9604,-113.154 -19.1382,-37.3944 -49.8298,-56.0916 -91.9868,-56.0916 z"
   id="path211" /></g>
</svg>
